<mxfile host="app.diagrams.net" modified="2023-12-18T01:23:14.149Z" agent="Mozilla/5.0 (X11; Linux x86_64) AppleWebKit/537.36 (KHTML, like Gecko) Chrome/120.0.0.0 Safari/537.36" version="22.1.11" etag="crLq8Wp19-otZZerhwwg" type="github">
  <diagram name="Page-1" id="fKyuMbt-rD17TSN4T0IV">
    <mxGraphModel>
      <root>
        <mxCell id="0" />
        <mxCell id="1" parent="0" />
      </root>
    </mxGraphModel>
  </diagram>
</mxfile>
